<?xml version="1.0" encoding="UTF-8"?>
<svg xmlns="http://www.w3.org/2000/svg" width="744" height="1039" viewBox="0 0 744 1039">
  <defs>
    <linearGradient id="cardBg" x1="0%" y1="0%" x2="100%" y2="100%">
      <stop offset="0%" stop-color="#f9f2de" />
      <stop offset="100%" stop-color="#ddc89e" />
    </linearGradient>
    <linearGradient id="artBg" x1="0%" y1="0%" x2="100%" y2="100%">
      <stop offset="0%" stop-color="#66573f" />
      <stop offset="100%" stop-color="#372a19" />
    </linearGradient>
    <pattern id="grain" width="12" height="12" patternUnits="userSpaceOnUse">
      <circle cx="2" cy="3" r="1" fill="#ffffff" fill-opacity="0.08" />
      <circle cx="9" cy="6" r="1" fill="#000000" fill-opacity="0.06" />
      <circle cx="5" cy="10" r="1" fill="#ffffff" fill-opacity="0.08" />
    </pattern>
    <filter id="shadow" x="-20%" y="-20%" width="140%" height="140%">
      <feDropShadow dx="0" dy="8" stdDeviation="12" flood-opacity="0.18" />
    </filter>
    <clipPath id="artClip">
      <rect x="42" y="162" width="660" height="370" rx="28" />
    </clipPath>
  </defs>
  <rect width="744" height="1039" rx="36" fill="#3a2816" />
  <rect x="10" y="10" width="724" height="1019" rx="28" fill="url(#cardBg)" />
  <rect x="42" y="42" width="660" height="955" rx="24" fill="#f7edd2" stroke="#8d7143" stroke-width="4" />
  <rect x="42" y="42" width="660" height="100" rx="24" fill="#4e351f" />
  <g transform="translate(56, 88)">
    <rect width="112" height="36" rx="18" fill="#e0d7f8" />
    <text x="56" y="24" text-anchor="middle" class="factionText" fill="#43206b">Thieves</text>
  </g>
  <circle cx="650" cy="94" r="48" fill="#fcf4de" stroke="#8d7143" stroke-width="6" />
  <text x="650" y="108" text-anchor="middle" class="powerValue">1</text>
  <text x="56" y="94" class="title" font-size="46">Ogglethorpe</text>
  <rect x="42" y="162" width="660" height="370" rx="28" fill="url(#artBg)" filter="url(#shadow)" />
  <rect x="60" y="180" width="624" height="334" rx="22" fill="#8d6f46" fill-opacity="0.16" stroke="#cfb077" stroke-opacity="0.55" />
  <rect x="42" y="162" width="660" height="370" rx="28" fill="url(#grain)" />
  <circle cx="372" cy="290" r="56" fill="rgba(255,245,220,0.16)" />
  <path d="M280 448 C308 390, 436 390, 464 448 L464 494 L280 494 Z" fill="rgba(255,245,220,0.14)" />
  <text x="372" y="308" text-anchor="middle" class="artPrompt">GNOME</text>
  <text x="372" y="354" text-anchor="middle" class="artName">Ogglethorpe</text>
  <text x="372" y="376" text-anchor="middle" class="artHint">gnome crafting firearms</text>
  <rect x="60" y="180" width="624" height="334" rx="22" fill="#8d6f46" fill-opacity="0.05" stroke="#cfb077" stroke-opacity="0.72" />
  <g transform="translate(78, 468)">
        <circle cx="24" cy="24" r="26" fill="rgba(255, 248, 235, 0.92)" stroke="#c9ab6d" stroke-width="3" />
        <image href="../../assets/factions/thieves.svg" x="0" y="0" width="48" height="48" />
      </g>
  <rect x="56" y="560" width="632" height="54" rx="18" fill="#f0f0f0" />
  <text x="372" y="596" text-anchor="middle" fill="#646464" class="typeLine">Gnome</text>
  <rect x="56" y="638" width="632" height="306" rx="24" fill="#fff7e8" stroke="#c7ac77" stroke-width="3" />
  <text x="58" y="782" class="rules">Plus 1 power to flankers when</text>
<text x="58" y="818" class="rules">attacking</text>
  <text x="56" y="986" class="footer">Generated by GameGen v0.1</text>
  <style>
    .title { font-family: Georgia, 'Times New Roman', serif; font-weight: 700; fill: #f7edd2; letter-spacing: 0.6px; }
    .powerValue { font-family: Georgia, 'Times New Roman', serif; font-size: 52px; font-weight: 700; fill: #3d2b17; }
    .factionText { font-family: Arial, sans-serif; font-size: 22px; font-weight: 700; }
    .artPrompt { font-family: Arial, sans-serif; font-size: 28px; font-weight: 700; fill: #f8efe0; letter-spacing: 3px; opacity: 0.82; }
    .artName { font-family: Georgia, 'Times New Roman', serif; font-size: 58px; font-weight: 700; fill: #fff5dc; }
    .artHint { font-family: Arial, sans-serif; font-size: 24px; fill: #f2dfbe; opacity: 0.9; }
    .infoLabel { font-family: Arial, sans-serif; font-size: 18px; font-weight: 700; fill: #ffe5ae; letter-spacing: 2px; }
    .infoText { font-family: Georgia, 'Times New Roman', serif; font-size: 24px; fill: #fff4da; }
    .typeLine { font-family: Arial, sans-serif; font-size: 24px; font-weight: 700; letter-spacing: 1.5px; }
    .rules { font-family: Georgia, 'Times New Roman', serif; font-size: 31px; fill: #342515; }
    .footer { font-family: Arial, sans-serif; font-size: 19px; fill: #7b6342; }
  </style>
</svg>